/* XPM */
static char * se_xpm[] = {
"20 20 3 1",
" 	c None",
".	c #0B5089",
"+	c #FFC100",
"..........++++......",
"..........++++......",
"..........++++......",
"..........++++......",
"..........++++......",
"..........++++......",
"..........++++......",
"..........++++......",
"++++++++++++++++++++",
"++++++++++++++++++++",
"++++++++++++++++++++",
"++++++++++++++++++++",
"..........++++......",
"..........++++......",
"..........++++......",
"..........++++......",
"..........++++......",
"..........++++......",
"..........++++......",
"..........++++......"};
