/* XPM */
static char * us_xpm[] = {
"20 20 97 2",
"  	c None",
". 	c #062D6C",
"+ 	c #315285",
"@ 	c #002868",
"# 	c #305084",
"$ 	c #0A306E",
"% 	c #052C6B",
"& 	c #335387",
"* 	c #2C4C82",
"= 	c #0B316F",
"- 	c #042B6A",
"; 	c #345387",
"> 	c #2A4B81",
", 	c #0F3571",
"' 	c #9B103B",
") 	c #BF0A30",
"! 	c #012969",
"~ 	c #526E99",
"{ 	c #173B76",
"] 	c #486491",
"^ 	c #113571",
"/ 	c #153A74",
"( 	c #516D98",
"_ 	c #193D77",
": 	c #44618F",
"< 	c #183B77",
"[ 	c #3C5B8B",
"} 	c #1A3F78",
"| 	c #B36C89",
"1 	c #DD7C91",
"2 	c #0D3370",
"3 	c #6880A6",
"4 	c #0E3471",
"5 	c #294B80",
"6 	c #4A6694",
"7 	c #677FA5",
"8 	c #21447C",
"9 	c #4F6B97",
"0 	c #CFD7E3",
"a 	c #FFFFFF",
"b 	c #082F6D",
"c 	c #6F86AA",
"d 	c #072E6C",
"e 	c #637BA3",
"f 	c #6E85A9",
"g 	c #5C769E",
"h 	c #20437B",
"i 	c #0C326F",
"j 	c #7086AA",
"k 	c #55709A",
"l 	c #9E1B44",
"m 	c #C3183C",
"n 	c #748AAD",
"o 	c #062D6B",
"p 	c #2F5084",
"q 	c #7389AC",
"r 	c #25477E",
"s 	c #082E6C",
"t 	c #AF5A79",
"u 	c #D7657D",
"v 	c #7088AB",
"w 	c #657DA4",
"x 	c #022A69",
"y 	c #6079A1",
"z 	c #1F427A",
"A 	c #7288AC",
"B 	c #58729C",
"C 	c #788DAF",
"D 	c #59739D",
"E 	c #778CAE",
"F 	c #032B6A",
"G 	c #A32E55",
"H 	c #C92F50",
"I 	c #768BAE",
"J 	c #6A81A7",
"K 	c #758BAD",
"L 	c #647CA3",
"M 	c #5D769F",
"N 	c #AB4D6E",
"O 	c #D35670",
"P 	c #2C4D82",
"Q 	c #5A749D",
"R 	c #23467D",
"S 	c #7187AB",
"T 	c #6981A6",
"U 	c #163B75",
"V 	c #627BA2",
"W 	c #1D4179",
"X 	c #26487F",
"Y 	c #A63B5F",
"Z 	c #CD3F5D",
"` 	c #2D2E67",
" .	c #31326A",
"..	c #2C2D66",
"+.	c #2F3068",
"@.	c #33346B",
"#.	c #AF3C5F",
". + @ # $ % & @ * = - ; @ > , ' ) ) ) ) ",
"! ~ { ] ^ / ( _ : < { ( _ [ } | 1 1 1 1 ",
"@ 2 3 4 5 6 2 7 4 8 9 2 7 , @ 0 a a a a ",
"b c d e { 2 f b g h i j b k 5 l m m m m ",
"@ - n o p k - q d r g - q s @ t u u u u ",
"b v ! w { d j x y z o A x B 5 0 a a a a ",
"@ @ C x p D @ E F r y @ E - @ G H H H H ",
"b I @ J { . K @ L h - E @ M > N O O O O ",
"@ @ I x P Q @ I F R y @ E - @ 0 a a a a ",
"d S - T U b q - V W o q - Q X Y Z Z Z Z ",
"`  ...+.+...@...+.+...@...+.+.#.Z Z Z Z ",
"a a a a a a a a a a a a a a a a a a a a ",
"O O O O O O O O O O O O O O O O O O O O ",
"H H H H H H H H H H H H H H H H H H H H ",
"a a a a a a a a a a a a a a a a a a a a ",
"u u u u u u u u u u u u u u u u u u u u ",
"m m m m m m m m m m m m m m m m m m m m ",
"a a a a a a a a a a a a a a a a a a a a ",
"1 1 1 1 1 1 1 1 1 1 1 1 1 1 1 1 1 1 1 1 ",
") ) ) ) ) ) ) ) ) ) ) ) ) ) ) ) ) ) ) ) "};
